<?xml version="1.0" encoding="UTF-8"?>
<!DOCTYPE svg PUBLIC "-//W3C//DTD SVG 1.1//EN" "http://www.w3.org/Graphics/SVG/1.1/DTD/svg11.dtd">
<svg xmlns="http://www.w3.org/2000/svg" version="1.1" width="1917px" height="1069px" transform="rotate(-2.15898 25.9697 0)" style="shape-rendering:geometricPrecision; text-rendering:geometricPrecision; image-rendering:optimizeQuality; fill-rule:evenodd; clip-rule:evenodd" xmlns:xlink="http://www.w3.org/1999/xlink">
<g><path style="opacity:1" fill="#fefefe" d="M -0.5,-0.5 C 638.5,-0.5 1277.5,-0.5 1916.5,-0.5C 1916.5,355.833 1916.5,712.167 1916.5,1068.5C 1277.5,1068.5 638.5,1068.5 -0.5,1068.5C -0.5,712.167 -0.5,355.833 -0.5,-0.5 Z"/></g>
<g><path style="opacity:1" fill="#111111" d="M 1340.5,28.5 C 1346.49,28.664 1347.82,31.164 1344.5,36C 1338.4,36.1475 1337.07,33.6475 1340.5,28.5 Z"/></g>
<g><path style="opacity:1" fill="#0b0b0b" d="M 1260.5,30.5 C 1262.26,30.3573 1263.93,30.6906 1265.5,31.5C 1266.65,34.4459 1266.82,37.4459 1266,40.5C 1264.44,42.5152 1262.61,42.8485 1260.5,41.5C 1261.69,40.5713 1263.02,40.238 1264.5,40.5C 1264.5,37.8333 1264.5,35.1667 1264.5,32.5C 1262.52,32.8432 1261.18,32.1765 1260.5,30.5 Z"/></g>
<g><path style="opacity:1" fill="#020022" d="M 1273.5,30.5 C 1274.48,33.6248 1274.81,36.9581 1274.5,40.5C 1279.5,41.0031 1279.17,41.3364 1273.5,41.5C 1273.5,37.8333 1273.5,34.1667 1273.5,30.5 Z"/></g>
<g><path style="opacity:1" fill="#05041f" d="M 574.5,31.5 C 572.833,31.5 571.167,31.5 569.5,31.5C 569.5,34.5 569.5,37.5 569.5,40.5C 571.167,40.5 572.833,40.5 574.5,40.5C 572.735,41.4614 570.735,41.7947 568.5,41.5C 568.5,37.8333 568.5,34.1667 568.5,30.5C 570.735,30.2053 572.735,30.5386 574.5,31.5 Z"/></g>
<g><path style="opacity:1" fill="#ece6df" d="M 574.5,31.5 C 577.167,34.5 577.167,37.5 574.5,40.5C 572.833,40.5 571.167,40.5 569.5,40.5C 569.5,37.5 569.5,34.5 569.5,31.5C 571.167,31.5 572.833,31.5 574.5,31.5 Z"/></g>
<g><path style="opacity:1" fill="#0c0c0c" d="M 1255.5,31.5 C 1258.23,32.713 1260.56,34.5464 1262.5,37C 1260.65,39.0176 1258.65,40.8509 1256.5,42.5C 1255.57,41.3112 1255.24,39.9778 1255.5,38.5C 1253.83,38.5 1252.17,38.5 1250.5,38.5C 1250.5,37.1667 1250.5,35.8333 1250.5,34.5C 1252.17,34.5 1253.83,34.5 1255.5,34.5C 1255.5,33.5 1255.5,32.5 1255.5,31.5 Z"/></g>
<g><path style="opacity:1" fill="#3a222f" d="M 590.5,32.5 C 591.873,32.3433 593.207,32.51 594.5,33C 595.451,33.7175 595.617,34.5509 595,35.5C 593.637,33.2157 592.137,33.049 590.5,35C 591.328,35.9147 592.328,36.5814 593.5,37C 589.707,37.4866 588.707,35.9866 590.5,32.5 Z"/></g>
<g><path style="opacity:1" fill="#4a6f91" d="M 515.5,40.5 C 513.847,41.7994 512.347,41.4661 511,39.5C 511.007,30.1664 511.673,30.1664 513,39.5C 513.671,40.2524 514.504,40.5858 515.5,40.5 Z"/></g>
<g><path style="opacity:1" fill="#4c3b5b" d="M 528.5,39.5 C 528.978,36.7224 527.978,34.7224 525.5,33.5C 522.452,35.1249 521.785,37.4582 523.5,40.5C 522.837,42.0419 522.17,43.7086 521.5,45.5C 520.167,41.1667 520.167,36.8333 521.5,32.5C 523.343,32.7552 525.343,32.9219 527.5,33C 529.608,35.0164 529.942,37.1831 528.5,39.5 Z"/></g>
<g><path style="opacity:1" fill="#543b4c" d="M 544.5,32.5 C 550.651,33.1029 551.984,35.9362 548.5,41C 543,42.1667 540.833,40 542,34.5C 542.995,33.9341 543.828,33.2674 544.5,32.5 Z"/></g>
<g><path style="opacity:1" fill="#543b4c" d="M 1282.5,32.5 C 1288.65,33.1029 1289.98,35.9362 1286.5,41C 1281,42.1667 1278.83,40 1280,34.5C 1280.99,33.9341 1281.83,33.2674 1282.5,32.5 Z"/></g>
<g><path style="opacity:1" fill="#6e4a3c" d="M 1297.5,33.5 C 1297.81,37.0419 1297.48,40.3752 1296.5,43.5C 1296.74,42.209 1296.4,41.209 1295.5,40.5C 1290.65,41.8174 1288.82,39.8174 1290,34.5C 1292.29,32.3438 1294.79,32.0104 1297.5,33.5 Z"/></g>
<g><path style="opacity:1" fill="#121668" d="M 1296.5,45.5 C 1296.5,45.1667 1296.5,44.8333 1296.5,44.5C 1296.5,44.1667 1296.5,43.8333 1296.5,43.5C 1297.48,40.3752 1297.81,37.0419 1297.5,33.5C 1298.26,34.3513 1298.59,36.018 1298.5,38.5C 1298.33,40.5 1298.17,42.5 1298,44.5C 1297.62,45.056 1297.12,45.3893 1296.5,45.5 Z"/></g>
<g><path style="opacity:1" fill="#61403d" d="M 1383.5,32.5 C 1383.81,36.3714 1383.48,40.0381 1382.5,43.5C 1382.74,42.209 1382.4,41.209 1381.5,40.5C 1376.65,41.8174 1374.82,39.8174 1376,34.5C 1376.5,34 1377,33.5 1377.5,33C 1379.69,32.9387 1381.69,32.7721 1383.5,32.5 Z"/></g>
<g><path style="opacity:1" fill="#1b3e94" d="M 1383.5,32.5 C 1384.65,36.3112 1384.81,40.3112 1384,44.5C 1383.62,45.056 1383.12,45.3893 1382.5,45.5C 1382.5,45.1667 1382.5,44.8333 1382.5,44.5C 1382.5,44.1667 1382.5,43.8333 1382.5,43.5C 1383.48,40.0381 1383.81,36.3714 1383.5,32.5 Z"/></g>
<g><path style="opacity:1" fill="#ede1d3" d="M 528.5,39.5 C 526.883,40.038 525.216,40.3713 523.5,40.5C 521.785,37.4582 522.452,35.1249 525.5,33.5C 527.978,34.7224 528.978,36.7224 528.5,39.5 Z"/></g>
<g><path style="opacity:1" fill="#f6f6f1" d="M 543.5,34.5 C 545.167,34.5 546.833,34.5 548.5,34.5C 548.66,36.1992 548.494,37.8659 548,39.5C 546.667,40.8333 545.333,40.8333 544,39.5C 543.506,37.8659 543.34,36.1992 543.5,34.5 Z"/></g>
<g><path style="opacity:1" fill="#540902" d="M 559.5,30.5 C 559.5,33.8333 559.5,37.1667 559.5,40.5C 558.79,38.1073 558.123,35.6073 557.5,33C 558.066,32.0053 558.733,31.172 559.5,30.5 Z"/></g>
<g><path style="opacity:1" fill="#2b568e" d="M 559.5,30.5 C 560.309,31.4687 561.309,32.3021 562.5,33C 559.833,35.6667 559.833,38.3333 562.5,41C 561.251,41.7401 560.251,41.5735 559.5,40.5C 559.5,37.1667 559.5,33.8333 559.5,30.5 Z"/></g>
<g><path style="opacity:1" fill="#1d2c69" d="M 574.5,31.5 C 576.95,31.8743 577.95,33.3743 577.5,36C 577.95,38.6257 576.95,40.1257 574.5,40.5C 577.167,37.5 577.167,34.5 574.5,31.5 Z"/></g>
<g><path style="opacity:1" fill="#f6f6f1" d="M 1281.5,34.5 C 1283.17,34.5 1284.83,34.5 1286.5,34.5C 1286.66,36.1992 1286.49,37.8659 1286,39.5C 1284.67,40.8333 1283.33,40.8333 1282,39.5C 1281.51,37.8659 1281.34,36.1992 1281.5,34.5 Z"/></g>
<g><path style="opacity:1" fill="#f1f6f5" d="M 1295.5,40.5 C 1291.93,40.2407 1290.6,38.2407 1291.5,34.5C 1293.17,34.5 1294.83,34.5 1296.5,34.5C 1296.67,36.6208 1296.34,38.6208 1295.5,40.5 Z"/></g>
<g><path style="opacity:1" fill="#f5f7f2" d="M 1381.5,40.5 C 1377.93,40.2407 1376.6,38.2407 1377.5,34.5C 1379.17,34.5 1380.83,34.5 1382.5,34.5C 1382.67,36.6208 1382.34,38.6208 1381.5,40.5 Z"/></g>
<g><path style="opacity:1" fill="#290602" d="M 1402.5,32.5 C 1400.8,34.8002 1400.13,37.4669 1400.5,40.5C 1399.79,38.1073 1399.12,35.6073 1398.5,33C 1399.13,32.2496 1399.63,31.4162 1400,30.5C 1400.42,31.756 1401.25,32.4226 1402.5,32.5 Z"/></g>
<g><path style="opacity:1" fill="#5485bc" d="M 1402.5,32.5 C 1403.04,32.56 1403.38,32.8933 1403.5,33.5C 1400.9,36.0886 1400.9,38.5886 1403.5,41C 1402.25,41.7401 1401.25,41.5735 1400.5,40.5C 1400.13,37.4669 1400.8,34.8002 1402.5,32.5 Z"/></g>
<g><path style="opacity:1" fill="#381d29" d="M 506.5,40.5 C 506.471,37.3443 504.804,35.6777 501.5,35.5C 499.822,32.5258 500.655,30.8592 504,30.5C 506.456,30.2868 507.456,31.2868 507,33.5C 505.89,31.9632 504.39,31.2965 502.5,31.5C 502.406,34.5406 503.906,36.2072 507,36.5C 507.765,38.0657 507.598,39.3991 506.5,40.5 Z"/></g>
<g><path style="opacity:1" fill="#140f24" d="M 1362.5,35.5 C 1362.01,36.4734 1361.51,37.4734 1361,38.5C 1360.31,37.6433 1359.48,36.9767 1358.5,36.5C 1357.7,38.0777 1357.2,39.7444 1357,41.5C 1356.5,37.8484 1356.33,34.1817 1356.5,30.5C 1358.53,30.3379 1360.53,30.5045 1362.5,31C 1363.8,32.6155 1363.8,34.1155 1362.5,35.5 Z"/></g>
<g><path style="opacity:1" fill="#ede7dd" d="M 1362.5,35.5 C 1360.83,35.5 1359.17,35.5 1357.5,35.5C 1357.5,34.1667 1357.5,32.8333 1357.5,31.5C 1360.95,30.7564 1362.62,32.0897 1362.5,35.5 Z"/></g>
<g><path style="opacity:1" fill="#0c0f2b" d="M 552.5,32.5 C 553.688,33.6843 554.855,33.6843 556,32.5C 556.188,34.0613 555.355,34.728 553.5,34.5C 553.663,36.8568 553.497,39.1902 553,41.5C 552.502,38.5184 552.335,35.5184 552.5,32.5 Z"/></g>
<g><path style="opacity:1" fill="#21131b" d="M 586.5,34.5 C 587.404,35.209 587.737,36.209 587.5,37.5C 584.612,36.9898 582.279,37.6565 580.5,39.5C 578.5,34.6574 580.167,32.4907 585.5,33C 586.056,33.3826 586.389,33.8826 586.5,34.5 Z"/></g>
<g><path style="opacity:1" fill="#e9e0d6" d="M 586.5,34.5 C 586.03,35.6935 585.03,36.3601 583.5,36.5C 579.917,36.3044 579.917,35.3044 583.5,33.5C 584.417,34.1272 585.417,34.4606 586.5,34.5 Z"/></g>
<g><path style="opacity:1" fill="#272d61" d="M 598.5,29.5 C 599.314,31.631 599.814,33.9644 600,36.5C 601.353,35.3147 602.52,33.9814 603.5,32.5C 603.833,32.6667 604.167,32.8333 604.5,33C 602.539,35.7577 600.705,38.591 599,41.5C 598.501,37.5138 598.334,33.5138 598.5,29.5 Z"/></g>
<g><path style="opacity:1" fill="#0c0547" d="M 1307.5,33.5 C 1306.77,36.0795 1306.27,38.7462 1306,41.5C 1305.33,38.5 1305.33,35.5 1306,32.5C 1306.38,33.056 1306.88,33.3893 1307.5,33.5 Z"/></g>
<g><path style="opacity:1" fill="#4b1216" d="M 1307.5,33.5 C 1308.88,32.1991 1310.38,32.1991 1312,33.5C 1312.67,36.1667 1312.67,38.8333 1312,41.5C 1311.67,39.1667 1311.33,36.8333 1311,34.5C 1309.99,33.6634 1308.82,33.33 1307.5,33.5 Z"/></g>
<g><path style="opacity:1" fill="#3b252e" d="M 1367.5,32.5 C 1371.56,31.8482 1373.56,33.5149 1373.5,37.5C 1371.4,37.2011 1369.4,37.5344 1367.5,38.5C 1369.24,41.1047 1371.07,41.1047 1373,38.5C 1373.62,39.4491 1373.45,40.2825 1372.5,41C 1365.42,41.475 1363.75,38.6417 1367.5,32.5 Z"/></g>
<g><path style="opacity:1" fill="#f8f8ed" d="M 1367.5,34.5 C 1369.29,34.2148 1370.95,34.5481 1372.5,35.5C 1371.67,35.8333 1370.83,36.1667 1370,36.5C 1368.62,36.3158 1367.79,35.6491 1367.5,34.5 Z"/></g>
<g><path style="opacity:1" fill="#513b46" d="M 1391.5,32.5 C 1393.66,32.1159 1395.33,32.7826 1396.5,34.5C 1396.33,34.8333 1396.17,35.1667 1396,35.5C 1393.82,32.5315 1392.66,32.8649 1392.5,36.5C 1395.83,36.5 1397.5,38.1667 1397.5,41.5C 1395.21,41.7564 1393.04,41.4231 1391,40.5C 1390.33,39.8333 1390.33,39.1667 1391,38.5C 1392.24,40.4206 1393.74,40.754 1395.5,39.5C 1394.34,38.0495 1392.84,37.0495 1391,36.5C 1390.42,35.0715 1390.59,33.7382 1391.5,32.5 Z"/></g>
<g><path style="opacity:1" fill="#21131b" d="M 1411.5,34.5 C 1412.4,35.209 1412.74,36.209 1412.5,37.5C 1409.61,36.9898 1407.28,37.6565 1405.5,39.5C 1403.5,34.6574 1405.17,32.4907 1410.5,33C 1411.06,33.3826 1411.39,33.8826 1411.5,34.5 Z"/></g>
<g><path style="opacity:1" fill="#e9e0d6" d="M 1411.5,34.5 C 1411.03,35.6935 1410.03,36.3601 1408.5,36.5C 1404.92,36.3044 1404.92,35.3044 1408.5,33.5C 1409.42,34.1272 1410.42,34.4606 1411.5,34.5 Z"/></g>
<g><path style="opacity:1" fill="#614463" d="M 1414.5,32.5 C 1416.06,33.2909 1417.39,33.6242 1418.5,33.5C 1417.08,35.9647 1416.08,38.6313 1415.5,41.5C 1414.52,38.5719 1414.18,35.5719 1414.5,32.5 Z"/></g>
<g><path style="opacity:1" fill="#0b0b0b" d="M 1337.5,37.5 C 1340.85,37.335 1344.18,37.5017 1347.5,38C 1349.32,39.4659 1349.82,41.2992 1349,43.5C 1344.92,44.6295 1340.75,44.7961 1336.5,44C 1335.14,41.5859 1335.48,39.4193 1337.5,37.5 Z"/></g>
<g><path style="opacity:1" fill="#3a262e" d="M 506.5,40.5 C 505.903,41.1386 505.07,41.472 504,41.5C 501.263,41.6243 500.429,40.6243 501.5,38.5C 502.842,40.0049 504.508,40.6715 506.5,40.5 Z"/></g>
<g><path style="opacity:1" fill="#3e0c02" d="M 515.5,40.5 C 516.228,37.9205 516.728,35.2538 517,32.5C 517.667,35.5 517.667,38.5 517,41.5C 516.617,40.944 516.117,40.6107 515.5,40.5 Z"/></g>
<g><path style="opacity:1" fill="#2a1931" d="M 528.5,39.5 C 527.121,41.5969 525.455,41.9302 523.5,40.5C 525.216,40.3713 526.883,40.038 528.5,39.5 Z"/></g>
<g><path style="opacity:1" fill="#382c38" d="M 531.5,32.5 C 533.398,33.0893 535.398,33.256 537.5,33C 541.065,35.1775 541.399,37.8442 538.5,41C 536.559,41.7429 534.726,41.5762 533,40.5C 532.667,42.1667 532.333,43.8333 532,45.5C 531.501,41.1794 531.334,36.8461 531.5,32.5 Z"/></g>
<g><path style="opacity:1" fill="#eceeeb" d="M 533.5,34.5 C 535.167,34.5 536.833,34.5 538.5,34.5C 538.66,36.1992 538.494,37.8659 538,39.5C 533.322,40.832 531.822,39.1654 533.5,34.5 Z"/></g>
<g><path style="opacity:1" fill="#252c44" d="M 580.5,39.5 C 583.207,40.6027 585.54,40.6027 587.5,39.5C 586.829,40.9458 585.662,41.6125 584,41.5C 582.301,41.6134 581.134,40.9468 580.5,39.5 Z"/></g>
<g><path style="opacity:1" fill="#231622" d="M 589.5,40.5 C 589.56,39.9569 589.893,39.6236 590.5,39.5C 591.795,40.0983 593.128,40.5983 594.5,41C 592.735,41.6397 591.068,41.4731 589.5,40.5 Z"/></g>
<g><path style="opacity:1" fill="#252c44" d="M 1405.5,39.5 C 1408.21,40.6027 1410.54,40.6027 1412.5,39.5C 1411.83,40.9458 1410.66,41.6125 1409,41.5C 1407.3,41.6134 1406.13,40.9468 1405.5,39.5 Z"/></g>
<g><path style="opacity:1" fill="#200f10" d="M 1296.5,44.5 C 1296.5,44.8333 1296.5,45.1667 1296.5,45.5C 1294.02,45.9492 1292.02,45.2825 1290.5,43.5C 1290.67,43.1667 1290.83,42.8333 1291,42.5C 1292.44,44.1554 1294.28,44.822 1296.5,44.5 Z"/></g>
<g><path style="opacity:1" fill="#1f0f17" d="M 1382.5,44.5 C 1382.5,44.8333 1382.5,45.1667 1382.5,45.5C 1380.02,45.9492 1378.02,45.2825 1376.5,43.5C 1376.67,43.1667 1376.83,42.8333 1377,42.5C 1378.44,44.1554 1380.28,44.822 1382.5,44.5 Z"/></g>
<g><path style="opacity:1" fill="#54575c" d="M 697.5,43.5 C 872.167,43.5 1046.83,43.5 1221.5,43.5C 1221.5,60.1667 1221.5,76.8333 1221.5,93.5C 1046.83,93.5 872.167,93.5 697.5,93.5C 697.5,76.8333 697.5,60.1667 697.5,43.5 Z"/></g>
<g><path style="opacity:1" fill="#d8d8d9" d="M 1075.5,65.5 C 1078.95,64.7564 1080.62,66.0897 1080.5,69.5C 1078.71,69.2148 1077.05,69.5481 1075.5,70.5C 1075.83,71.5 1076.5,72.1667 1077.5,72.5C 1078.45,71.6744 1079.45,71.5078 1080.5,72C 1078.73,73.4868 1076.73,73.8201 1074.5,73C 1073.08,70.2565 1073.42,67.7565 1075.5,65.5 Z"/></g>
<g><path style="opacity:1" fill="#dbdcdd" d="M 946.5,62.5 C 948.842,62.7748 948.842,63.6081 946.5,65C 948.863,65.5885 949.863,67.0885 949.5,69.5C 947.712,69.2148 946.045,69.5481 944.5,70.5C 944.833,71.5 945.5,72.1667 946.5,72.5C 947.609,71.4104 948.609,71.4104 949.5,72.5C 944.545,74.3742 942.378,72.7075 943,67.5C 944.669,66.1537 945.836,64.487 946.5,62.5 Z"/></g>
<g><path style="opacity:1" fill="#e4e5e5" d="M 785.5,65.5 C 786.978,65.238 788.311,65.5713 789.5,66.5C 788.47,66.5545 787.303,66.8878 786,67.5C 785.333,68.8333 785.333,70.1667 786,71.5C 787.303,72.1122 788.47,72.4455 789.5,72.5C 783.403,73.214 782.069,70.8807 785.5,65.5 Z"/></g>
<g><path style="opacity:1" fill="#d8d9da" d="M 999.5,66.5 C 1000.21,65.596 1001.21,65.2627 1002.5,65.5C 1002.94,69.8466 1003.78,70.18 1005,66.5C 1005.72,65.5494 1006.55,65.3828 1007.5,66C 1006.63,68.8183 1005.29,71.3183 1003.5,73.5C 1002.16,71.0956 1000.82,68.7623 999.5,66.5 Z"/></g>
<g><path style="opacity:1" fill="#e6e7e7" d="M 956.5,65.5 C 962.488,65.664 963.821,68.164 960.5,73C 954.403,73.1475 953.07,70.6475 956.5,65.5 Z"/></g>
<g><path style="opacity:1" fill="#eaeaeb" d="M 984.5,66.5 C 986.628,65.3709 988.961,65.2042 991.5,66C 990.044,67.7448 988.711,69.5781 987.5,71.5C 988.729,72.2811 990.062,72.7811 991.5,73C 989.167,73.6667 986.833,73.6667 984.5,73C 985.833,71 987.167,69 988.5,67C 987.207,66.51 985.873,66.3433 984.5,66.5 Z"/></g>
<g><path style="opacity:1" fill="#e1e1e2" d="M 1008.5,62.5 C 1010.12,63.5893 1010.95,65.256 1011,67.5C 1014.45,64.4885 1016.95,65.1551 1018.5,69.5C 1019.26,68.3717 1019.93,67.2051 1020.5,66C 1021.17,65.3333 1021.83,65.3333 1022.5,66C 1021.09,69.4883 1019.42,72.8217 1017.5,76C 1016.5,76.6667 1015.5,76.6667 1014.5,76C 1015.91,75.6322 1016.91,74.7989 1017.5,73.5C 1016.69,71.0748 1015.69,68.7415 1014.5,66.5C 1010.59,68.5531 1010.59,70.7198 1014.5,73C 1013,73.5074 1011.84,73.0074 1011,71.5C 1010.69,72.3081 1010.19,72.9747 1009.5,73.5C 1008.51,69.8927 1008.18,66.226 1008.5,62.5 Z"/></g>
<g><path style="opacity:1" fill="#e2e2e3" d="M 972.5,65.5 C 974.199,65.3398 975.866,65.5065 977.5,66C 976.584,66.3742 975.75,66.8742 975,67.5C 974.808,69.5767 974.308,71.5767 973.5,73.5C 972.52,70.9135 972.187,68.2469 972.5,65.5 Z"/></g>
<g><path style="opacity:1" fill="#e4e4e5" d="M 963.5,62.5 C 965.048,62.8212 965.715,63.8212 965.5,65.5C 971.488,65.664 972.821,68.164 969.5,73C 967.527,73.4955 965.527,73.6621 963.5,73.5C 963.5,69.8333 963.5,66.1667 963.5,62.5 Z"/></g>
<g><path style="opacity:1" fill="#dbdcdd" d="M 932.5,65.5 C 936.241,64.5985 938.241,65.9319 938.5,69.5C 936.833,69.5 935.167,69.5 933.5,69.5C 933.5,70.5 933.5,71.5 933.5,72.5C 935.109,72.0941 936.443,72.0941 937.5,72.5C 935.647,73.7596 933.814,73.7596 932,72.5C 931.297,70.0709 931.463,67.7375 932.5,65.5 Z"/></g>
<g><path style="opacity:1" fill="#e2e2e3" d="M 925.5,65.5 C 927.288,65.2148 928.955,65.5481 930.5,66.5C 929.47,66.5545 928.303,66.8878 927,67.5C 926.506,69.1341 926.34,70.8008 926.5,72.5C 928.109,72.0941 929.443,72.0941 930.5,72.5C 928.647,73.7596 926.814,73.7596 925,72.5C 924.297,70.0709 924.463,67.7375 925.5,65.5 Z"/></g>
<g><path style="opacity:1" fill="#e6e6e7" d="M 914.5,66.5 C 915.542,65.2089 916.708,65.2089 918,66.5C 918.814,68.9018 918.647,71.2351 917.5,73.5C 917.062,70.7051 916.062,68.3717 914.5,66.5 Z"/></g>
<g><path style="opacity:1" fill="#e4e4e5" d="M 914.5,66.5 C 914.808,68.924 914.474,71.2573 913.5,73.5C 911.833,64.1667 910.167,64.1667 908.5,73.5C 907.52,70.9135 907.187,68.2469 907.5,65.5C 909.95,65.298 912.283,65.6314 914.5,66.5 Z"/></g>
<g><path style="opacity:1" fill="#e2e2e3" d="M 865.5,65.5 C 867.288,65.2148 868.955,65.5481 870.5,66.5C 869.609,67.5896 868.609,67.5896 867.5,66.5C 865.561,68.1222 865.228,69.9555 866.5,72C 867.951,71.7374 869.284,71.9041 870.5,72.5C 863.842,73.8365 862.176,71.5032 865.5,65.5 Z"/></g>
<g><path style="opacity:1" fill="#d9d9db" d="M 820.5,65.5 C 823.95,64.7564 825.616,66.0897 825.5,69.5C 823.712,69.2148 822.045,69.5481 820.5,70.5C 820.833,71.5 821.5,72.1667 822.5,72.5C 823.609,71.4104 824.609,71.4104 825.5,72.5C 818.789,73.7881 817.123,71.4548 820.5,65.5 Z"/></g>
<g><path style="opacity:1" fill="#d9d9db" d="M 805.5,71.5 C 805.5,70.1667 805.5,68.8333 805.5,67.5C 809.165,64.3281 811.498,64.9947 812.5,69.5C 810.712,69.2148 809.045,69.5481 807.5,70.5C 807.833,71.5 808.5,72.1667 809.5,72.5C 810.609,71.4104 811.609,71.4104 812.5,72.5C 809.9,73.8456 807.567,73.5123 805.5,71.5 Z"/></g>
<g><path style="opacity:1" fill="#e2e2e3" d="M 805.5,67.5 C 802.698,65.7735 801.032,66.6068 800.5,70C 801.424,72.7905 803.091,73.2905 805.5,71.5C 805.209,72.6491 804.376,73.3158 803,73.5C 798.188,72.3978 797.355,69.8978 800.5,66C 801.333,65.8333 802.167,65.6667 803,65.5C 804.376,65.6842 805.209,66.3509 805.5,67.5 Z"/></g>
<g><path style="opacity:1" fill="#e4e5e5" d="M 755.5,62.5 C 757.117,63.5893 757.95,65.256 758,67.5C 758.837,65.9926 760.004,65.4926 761.5,66C 757.5,68.3333 757.5,70.6667 761.5,73C 760.004,73.5074 758.837,73.0074 758,71.5C 757.692,72.3081 757.192,72.9747 756.5,73.5C 755.511,69.8927 755.177,66.226 755.5,62.5 Z"/></g>
<g><path style="opacity:1" fill="#e1e1e2" d="M 1052.5,72.5 C 1049.68,74.2007 1048.01,73.3673 1047.5,70C 1047.75,66.918 1049.42,65.418 1052.5,65.5C 1052.28,64.325 1052.61,63.325 1053.5,62.5C 1054.66,66.122 1054.83,69.7887 1054,73.5C 1053.62,72.944 1053.12,72.6107 1052.5,72.5 Z"/></g>
<g><path style="opacity:1" fill="#e0e0e1" d="M 978.5,65.5 C 980.144,65.2865 981.644,65.6198 983,66.5C 983.497,68.8098 983.663,71.1432 983.5,73.5C 981.533,73.7394 979.699,73.4061 978,72.5C 977.251,71.365 977.417,70.365 978.5,69.5C 979.795,68.9017 981.128,68.4017 982.5,68C 981.464,66.3831 980.297,66.2164 979,67.5C 978.536,66.9056 978.369,66.2389 978.5,65.5 Z"/></g>
<g><path style="opacity:1" fill="#d9dadb" d="M 890.5,65.5 C 893.278,65.0217 895.278,66.0217 896.5,68.5C 894.5,69.1667 892.5,69.8333 890.5,70.5C 890.709,71.086 891.043,71.586 891.5,72C 893.085,72.0848 894.418,72.2514 895.5,72.5C 888.789,73.7881 887.123,71.4548 890.5,65.5 Z"/></g>
<g><path style="opacity:1" fill="#e1e1e2" d="M 775.5,72.5 C 772.676,74.2007 771.009,73.3673 770.5,70C 770.748,66.918 772.415,65.418 775.5,65.5C 775.281,64.325 775.614,63.325 776.5,62.5C 777.659,66.122 777.825,69.7887 777,73.5C 776.617,72.944 776.117,72.6107 775.5,72.5 Z"/></g>
<g><path style="opacity:1" fill="#5f6267" d="M 1052.5,72.5 C 1050.52,72.516 1049.52,71.516 1049.5,69.5C 1050.83,65.5 1052.17,65.5 1053.5,69.5C 1053.31,70.5837 1052.98,71.5837 1052.5,72.5 Z"/></g>
<g><path style="opacity:1" fill="#dfdfe0" d="M 1040.5,65.5 C 1046.7,65.3137 1048.04,67.8137 1044.5,73C 1038.4,73.1475 1037.07,70.6475 1040.5,65.5 Z"/></g>
<g><path style="opacity:1" fill="#52565a" d="M 1041.5,66.5 C 1043.48,66.484 1044.48,67.484 1044.5,69.5C 1043.17,73.5 1041.83,73.5 1040.5,69.5C 1040.69,68.4163 1041.02,67.4163 1041.5,66.5 Z"/></g>
<g><path style="opacity:1" fill="#dfdfe0" d="M 999.5,66.5 C 999.862,73.004 997.362,74.6707 992,71.5C 991.599,65.7853 994.099,64.1187 999.5,66.5 Z"/></g>
<g><path style="opacity:1" fill="#52565a" d="M 994.5,66.5 C 996.484,66.484 997.484,67.484 997.5,69.5C 996.167,73.5 994.833,73.5 993.5,69.5C 993.685,68.4163 994.018,67.4163 994.5,66.5 Z"/></g>
<g><path style="opacity:1" fill="#55585d" d="M 966.5,66.5 C 968.484,66.484 969.484,67.484 969.5,69.5C 968.167,73.5 966.833,73.5 965.5,69.5C 965.685,68.4163 966.018,67.4163 966.5,66.5 Z"/></g>
<g><path style="opacity:1" fill="#52565a" d="M 957.5,66.5 C 959.484,66.484 960.484,67.484 960.5,69.5C 959.167,73.5 957.833,73.5 956.5,69.5C 956.685,68.4163 957.018,67.4163 957.5,66.5 Z"/></g>
<g><path style="opacity:1" fill="#dedfe0" d="M 855.5,65.5 C 862.232,64.4816 864.232,67.1483 861.5,73.5C 860.241,64.3991 858.575,64.3991 856.5,73.5C 855.52,70.9135 855.187,68.2469 855.5,65.5 Z"/></g>
<g><path style="opacity:1" fill="#dfdfe0" d="M 848.5,65.5 C 854.704,65.3137 856.037,67.8137 852.5,73C 846.403,73.1475 845.07,70.6475 848.5,65.5 Z"/></g>
<g><path style="opacity:1" fill="#52565a" d="M 849.5,66.5 C 851.484,66.484 852.484,67.484 852.5,69.5C 851.167,73.5 849.833,73.5 848.5,69.5C 848.685,68.4163 849.018,67.4163 849.5,66.5 Z"/></g>
<g><path style="opacity:1" fill="#dfe0e1" d="M 839.5,62.5 C 841.117,63.5893 841.95,65.256 842,67.5C 843.133,65.7888 844.633,65.2888 846.5,66C 842.534,68.2848 842.534,70.6181 846.5,73C 844.112,73.8651 842.612,73.0317 842,70.5C 841.751,71.624 841.251,72.624 840.5,73.5C 839.511,69.8927 839.177,66.226 839.5,62.5 Z"/></g>
<g><path style="opacity:1" fill="#e5e5e6" d="M 814.5,63.5 C 815.931,64.0819 817.264,64.9152 818.5,66C 815.833,68.3333 815.833,70.6667 818.5,73C 817.216,73.6838 816.049,73.5171 815,72.5C 814.122,69.3556 813.955,66.3556 814.5,63.5 Z"/></g>
<g><path style="opacity:1" fill="#55585d" d="M 805.5,67.5 C 805.5,68.8333 805.5,70.1667 805.5,71.5C 803.091,73.2905 801.424,72.7905 800.5,70C 801.032,66.6068 802.698,65.7735 805.5,67.5 Z"/></g>
<g><path style="opacity:1" fill="#e0e1e2" d="M 790.5,62.5 C 792.048,62.8212 792.715,63.8212 792.5,65.5C 796.24,64.7415 797.907,66.2415 797.5,70C 797.167,71.1667 796.833,72.3333 796.5,73.5C 795.241,64.3991 793.575,64.3991 791.5,73.5C 790.511,69.8927 790.177,66.226 790.5,62.5 Z"/></g>
<g><path style="opacity:1" fill="#5f6267" d="M 775.5,72.5 C 773.516,72.516 772.516,71.516 772.5,69.5C 773.833,65.5 775.167,65.5 776.5,69.5C 776.315,70.5837 775.982,71.5837 775.5,72.5 Z"/></g>
<g><path style="opacity:1" fill="#e0e0e1" d="M 738.5,62.5 C 743.118,61.3087 745.618,62.9754 746,67.5C 748.075,65.3517 750.408,65.0183 753,66.5C 754.33,71.4977 752.496,73.6643 747.5,73C 746.228,71.6932 745.228,70.1932 744.5,68.5C 743.264,69.2458 741.93,69.5792 740.5,69.5C 740.762,70.9778 740.429,72.3112 739.5,73.5C 738.511,69.8927 738.177,66.226 738.5,62.5 Z"/></g>
<g><path style="opacity:1" fill="#52565a" d="M 748.5,66.5 C 750.484,66.484 751.484,67.484 751.5,69.5C 750.167,73.5 748.833,73.5 747.5,69.5C 747.685,68.4163 748.018,67.4163 748.5,66.5 Z"/></g>
<g><path style="opacity:1" fill="#ededed" d="M 1069.5,63.5 C 1070.31,64.4687 1071.31,65.3021 1072.5,66C 1069.83,68.3333 1069.83,70.6667 1072.5,73C 1071.55,73.4828 1070.55,73.6495 1069.5,73.5C 1069.86,64.7947 1067.86,64.2947 1063.5,72C 1064.83,72.3333 1066.17,72.6667 1067.5,73C 1065.42,73.8077 1063.42,73.641 1061.5,72.5C 1062.71,70.5781 1064.04,68.7448 1065.5,67C 1059.75,65.2471 1057.08,67.4137 1057.5,73.5C 1056.52,70.9135 1056.19,68.2469 1056.5,65.5C 1061.29,66.0969 1065.63,65.4302 1069.5,63.5 Z"/></g>
<g><path style="opacity:1" fill="#e8e8e9" d="M 1030.5,65.5 C 1036.89,64.218 1038.89,66.5514 1036.5,72.5C 1035.31,73.4287 1033.98,73.762 1032.5,73.5C 1032.72,74.675 1032.39,75.675 1031.5,76.5C 1030.51,72.8927 1030.18,69.226 1030.5,65.5 Z"/></g>
<g><path style="opacity:1" fill="#595c61" d="M 1032.5,66.5 C 1033.5,66.5 1034.5,66.5 1035.5,66.5C 1035.95,68.9775 1035.28,70.9775 1033.5,72.5C 1032.53,70.604 1032.2,68.604 1032.5,66.5 Z"/></g>
<g><path style="opacity:1" fill="#e5e6e6" d="M 896.5,66.5 C 899.287,65.5233 902.287,65.19 905.5,65.5C 905.5,68.1667 905.5,70.8333 905.5,73.5C 896.768,74.8928 895.101,72.7261 900.5,67C 899.207,66.51 897.873,66.3433 896.5,66.5 Z"/></g>
<g><path style="opacity:1" fill="#595c61" d="M 902.5,66.5 C 903.461,68.2646 903.795,70.2646 903.5,72.5C 901.801,72.6602 900.134,72.4935 898.5,72C 899.965,70.2258 901.298,68.3925 902.5,66.5 Z"/></g>
<g><path style="opacity:1" fill="#e8e9ea" d="M 884.5,65.5 C 885.873,65.3433 887.207,65.51 888.5,66C 887.004,68.2012 886.004,70.7012 885.5,73.5C 884.52,70.9135 884.187,68.2469 884.5,65.5 Z"/></g>
<g><path style="opacity:1" fill="#dcddde" d="M 875.5,63.5 C 876.931,64.0819 878.264,64.9152 879.5,66C 876.833,68.3333 876.833,70.6667 879.5,73C 878.207,73.49 876.873,73.6567 875.5,73.5C 875.127,64.256 874.127,64.256 872.5,73.5C 871.52,70.9135 871.187,68.2469 871.5,65.5C 873.483,65.8432 874.817,65.1765 875.5,63.5 Z"/></g>
<g><path style="opacity:1" fill="#eaeaeb" d="M 830.5,65.5 C 831.945,67.6898 833.278,70.0231 834.5,72.5C 835.086,72.2907 835.586,71.9574 836,71.5C 836.333,69.5 836.667,67.5 837,65.5C 837.497,68.146 837.664,70.8127 837.5,73.5C 831.671,74.0002 829.337,71.3335 830.5,65.5 Z"/></g>
<g><path style="opacity:1" fill="#e2e2e3" d="M 762.5,65.5 C 764.062,67.3717 765.062,69.7051 765.5,72.5C 767.024,70.5175 768.024,68.1841 768.5,65.5C 769.48,68.0865 769.813,70.7531 769.5,73.5C 763.095,74.5938 760.762,71.9271 762.5,65.5 Z"/></g>
<g><path style="opacity:1" fill="#52565a" d="M 740.5,63.5 C 743.956,64.5362 744.29,66.2029 741.5,68.5C 740.548,66.9547 740.215,65.288 740.5,63.5 Z"/></g>
<g><path style="opacity:1" fill="#d9d9da" d="M 939.5,62.5 C 940.787,63.8714 941.453,65.7047 941.5,68C 941.167,69.8333 940.833,71.6667 940.5,73.5C 939.511,69.8927 939.177,66.226 939.5,62.5 Z"/></g>
<g><path style="opacity:1" fill="#53565b" d="M 1089.5,52.5 C 1117.5,52.5 1145.5,52.5 1173.5,52.5C 1173.5,63.1667 1173.5,73.8333 1173.5,84.5C 1145.5,84.5 1117.5,84.5 1089.5,84.5C 1089.5,73.8333 1089.5,63.1667 1089.5,52.5 Z"/></g>
<g><path style="opacity:1" fill="#e1e2e2" d="M 1156.5,65.5 C 1158.29,65.2148 1159.95,65.5481 1161.5,66.5C 1160.17,66.8333 1158.83,67.1667 1157.5,67.5C 1158.76,68.3816 1159.93,69.3816 1161,70.5C 1161.83,65.8476 1164.33,64.5143 1168.5,66.5C 1167.61,67.5896 1166.61,67.5896 1165.5,66.5C 1163.56,68.1222 1163.23,69.9555 1164.5,72C 1165.95,71.7374 1167.28,71.9041 1168.5,72.5C 1164.17,71.1667 1159.83,71.1667 1155.5,72.5C 1156.83,72.1667 1158.17,71.8333 1159.5,71.5C 1156.48,70.2274 1155.48,68.2274 1156.5,65.5 Z"/></g>
<g><path style="opacity:1" fill="#d9d9da" d="M 1114.5,65.5 C 1116.61,66.3602 1117.78,68.0268 1118,70.5C 1118.74,68.7795 1119.57,67.1128 1120.5,65.5C 1121.29,67.8558 1120.96,70.1891 1119.5,72.5C 1118.68,73.3857 1117.68,73.719 1116.5,73.5C 1116.04,70.779 1115.37,68.1123 1114.5,65.5 Z"/></g>
<g><path style="opacity:1" fill="#dedfe0" d="M 1137.5,65.5 C 1139.14,65.2865 1140.64,65.6198 1142,66.5C 1142.5,68.8098 1142.66,71.1432 1142.5,73.5C 1140.5,73.5 1138.5,73.5 1136.5,73.5C 1135.84,70.1592 1137.18,68.1592 1140.5,67.5C 1139.28,66.9041 1137.95,66.7374 1136.5,67C 1137.06,66.6174 1137.39,66.1174 1137.5,65.5 Z"/></g>
<g><path style="opacity:1" fill="#dddedf" d="M 1123.5,65.5 C 1127.53,66.4358 1131.53,66.7692 1135.5,66.5C 1134.17,66.8333 1132.83,67.1667 1131.5,67.5C 1133.05,68.439 1134.39,69.6057 1135.5,71C 1135.36,71.772 1135.02,72.4387 1134.5,73C 1132.74,73.7975 1131.07,73.6309 1129.5,72.5C 1134.54,72.5476 1134.71,71.2142 1130,68.5C 1128.3,69.4061 1126.47,69.7394 1124.5,69.5C 1124.5,70.5 1124.5,71.5 1124.5,72.5C 1126.11,72.0941 1127.44,72.0941 1128.5,72.5C 1126.65,73.7596 1124.81,73.7596 1123,72.5C 1122.3,70.0709 1122.46,67.7375 1123.5,65.5 Z"/></g>
<g><path style="opacity:1" fill="#dededf" d="M 1110.5,62.5 C 1112.84,62.7748 1112.84,63.6081 1110.5,65C 1111.42,65.3742 1112.25,65.8742 1113,66.5C 1113.5,68.8098 1113.66,71.1432 1113.5,73.5C 1111.5,73.5 1109.5,73.5 1107.5,73.5C 1106.84,70.1592 1108.18,68.1592 1111.5,67.5C 1110.28,66.9041 1108.95,66.7374 1107.5,67C 1108.88,65.7292 1109.88,64.2292 1110.5,62.5 Z"/></g>
<g><path style="opacity:1" fill="#e9e9e9" d="M 1148.5,62.5 C 1150.53,62.3379 1152.53,62.5045 1154.5,63C 1153.21,63.49 1151.87,63.6567 1150.5,63.5C 1150.5,64.8333 1150.5,66.1667 1150.5,67.5C 1155.83,67.8333 1155.83,68.1667 1150.5,68.5C 1150.5,69.8333 1150.5,71.1667 1150.5,72.5C 1151.87,72.3433 1153.21,72.51 1154.5,73C 1152.53,73.4955 1150.53,73.6621 1148.5,73.5C 1148.5,69.8333 1148.5,66.1667 1148.5,62.5 Z"/></g>
<g><path style="opacity:1" fill="#c9cacb" d="M 1104.5,62.5 C 1105.79,63.8714 1106.45,65.7047 1106.5,68C 1106.17,69.8333 1105.83,71.6667 1105.5,73.5C 1104.51,69.8927 1104.18,66.226 1104.5,62.5 Z"/></g>
<g><path style="opacity:1" fill="#e0e1e2" d="M 1095.5,62.5 C 1097.05,63.2297 1097.88,64.563 1098,66.5C 1098.87,63.6059 1100.7,62.4392 1103.5,63C 1101.84,64.6239 1100.18,66.2906 1098.5,68C 1100.17,69.6667 1101.83,71.3333 1103.5,73C 1102.5,73.6667 1101.5,73.6667 1100.5,73C 1098.53,68.1946 1097.2,68.3613 1096.5,73.5C 1095.51,69.8927 1095.18,66.226 1095.5,62.5 Z"/></g>
<g><path style="opacity:1" fill="#140e10" d="M 1227.5,148.5 C 1232.26,149.092 1233.6,151.592 1231.5,156C 1225.2,156.495 1223.87,153.995 1227.5,148.5 Z"/></g>
<g><path style="opacity:1" fill="#1d1216" d="M 659.5,150.5 C 661.833,150.5 664.167,150.5 666.5,150.5C 666.334,154.514 666.501,158.514 667,162.5C 673.26,158.154 678.926,158.821 684,164.5C 685.429,171.719 685.929,179.053 685.5,186.5C 683.167,186.5 680.833,186.5 678.5,186.5C 678.666,180.158 678.5,173.825 678,167.5C 674.333,164.833 670.667,164.833 667,167.5C 666.5,173.825 666.334,180.158 666.5,186.5C 664.167,186.5 661.833,186.5 659.5,186.5C 659.5,174.5 659.5,162.5 659.5,150.5 Z"/></g>
<g><path style="opacity:1" fill="#130f15" d="M 773.5,150.5 C 775.833,150.5 778.167,150.5 780.5,150.5C 780.5,162.5 780.5,174.5 780.5,186.5C 778.167,186.5 775.833,186.5 773.5,186.5C 773.372,183.226 772.039,183.059 769.5,186C 758.771,187.611 753.104,182.944 752.5,172C 753.676,163.152 758.676,159.152 767.5,160C 769.848,160.346 771.681,161.513 773,163.5C 773.499,159.179 773.666,154.846 773.5,150.5 Z"/></g>
<g><path style="opacity:1" fill="#160d13" d="M 1041.5,150.5 C 1043.83,150.5 1046.17,150.5 1048.5,150.5C 1048.5,162.5 1048.5,174.5 1048.5,186.5C 1046.17,186.5 1043.83,186.5 1041.5,186.5C 1041.65,185.448 1041.48,184.448 1041,183.5C 1029.47,189.482 1022.63,185.982 1020.5,173C 1022.35,160.328 1029.02,156.828 1040.5,162.5C 1041.49,158.555 1041.82,154.555 1041.5,150.5 Z"/></g>
<g><path style="opacity:1" fill="#0b0408" d="M 1066.5,150.5 C 1068.5,150.5 1070.5,150.5 1072.5,150.5C 1072.18,154.555 1072.51,158.555 1073.5,162.5C 1080.28,158.046 1086.11,159.046 1091,165.5C 1091.5,172.492 1091.67,179.492 1091.5,186.5C 1089.5,186.5 1087.5,186.5 1085.5,186.5C 1085.67,180.491 1085.5,174.491 1085,168.5C 1081,164.5 1077,164.5 1073,168.5C 1072.5,174.491 1072.33,180.491 1072.5,186.5C 1070.5,186.5 1068.5,186.5 1066.5,186.5C 1066.5,174.5 1066.5,162.5 1066.5,150.5 Z"/></g>
<g><path style="opacity:1" fill="#221316" d="M 1127.5,150.5 C 1129.83,150.5 1132.17,150.5 1134.5,150.5C 1134.5,162.5 1134.5,174.5 1134.5,186.5C 1132.17,186.5 1129.83,186.5 1127.5,186.5C 1127.5,174.5 1127.5,162.5 1127.5,150.5 Z"/></g>
<g><path style="opacity:1" fill="#190e12" d="M 1257.5,150.5 C 1259.83,150.5 1262.17,150.5 1264.5,150.5C 1264.33,154.514 1264.5,158.514 1265,162.5C 1271.19,158.192 1276.86,158.859 1282,164.5C 1282.5,171.826 1282.67,179.159 1282.5,186.5C 1280.5,186.5 1278.5,186.5 1276.5,186.5C 1276.67,180.491 1276.5,174.491 1276,168.5C 1272.68,164.895 1269.02,164.561 1265,167.5C 1264.5,173.825 1264.33,180.158 1264.5,186.5C 1262.17,186.5 1259.83,186.5 1257.5,186.5C 1257.5,174.5 1257.5,162.5 1257.5,150.5 Z"/></g>
<g><path style="opacity:1" fill="#110a0f" d="M 1295.5,151.5 C 1306.01,151.3 1310.51,156.3 1309,166.5C 1306.38,169.985 1302.88,171.652 1298.5,171.5C 1298.5,172.833 1298.5,174.167 1298.5,175.5C 1296.5,175.5 1294.5,175.5 1292.5,175.5C 1292.5,172.833 1292.5,170.167 1292.5,167.5C 1296.46,167.929 1299.96,166.929 1303,164.5C 1304.17,159 1302,156.833 1296.5,158C 1295.03,158.71 1294.36,159.876 1294.5,161.5C 1292.5,161.5 1290.5,161.5 1288.5,161.5C 1288.47,156.528 1290.8,153.195 1295.5,151.5 Z"/></g>
<g><path style="opacity:1" fill="#140f16" d="M 608.5,153.5 C 610.895,152.186 613.395,152.186 616,153.5C 617.992,161.799 619.825,170.133 621.5,178.5C 624.29,170.098 626.624,161.598 628.5,153C 631.099,152.231 633.599,152.398 636,153.5C 638.472,161.721 640.472,170.054 642,178.5C 642.838,175.148 643.671,171.815 644.5,168.5C 645.924,166.485 646.59,164.152 646.5,161.5C 646.678,158.784 647.178,156.117 648,153.5C 650.381,152.565 652.881,152.232 655.5,152.5C 652.246,163.773 649.246,175.106 646.5,186.5C 643.833,186.5 641.167,186.5 638.5,186.5C 637.87,182.952 636.87,179.619 635.5,176.5C 635.105,171.917 633.938,167.584 632,163.5C 629.369,171.024 627.202,178.691 625.5,186.5C 622.833,186.5 620.167,186.5 617.5,186.5C 616.611,181.272 615.278,176.272 613.5,171.5C 613.59,168.848 612.924,166.515 611.5,164.5C 611.768,162.901 611.434,161.568 610.5,160.5C 610.59,157.848 609.924,155.515 608.5,153.5 Z"/></g>
<g><path style="opacity:1" fill="#080707" d="M 726.5,183.5 C 725.963,177.35 725.296,171.35 724.5,165.5C 722.692,164.082 722.025,162.082 722.5,159.5C 723.5,159.5 724.5,159.5 725.5,159.5C 725.5,157.5 725.5,155.5 725.5,153.5C 727.5,153.5 729.5,153.5 731.5,153.5C 731.5,155.5 731.5,157.5 731.5,159.5C 733.5,159.5 735.5,159.5 737.5,159.5C 737.5,161.5 737.5,163.5 737.5,165.5C 735.5,165.5 733.5,165.5 731.5,165.5C 731.5,170.5 731.5,175.5 731.5,180.5C 733.5,180.5 735.5,180.5 737.5,180.5C 737.5,182.5 737.5,184.5 737.5,186.5C 733.247,187.193 729.581,186.193 726.5,183.5 Z"/></g>
<g><path style="opacity:1" fill="#120c0e" d="M 1239.5,153.5 C 1241.83,153.5 1244.17,153.5 1246.5,153.5C 1246.5,155.5 1246.5,157.5 1246.5,159.5C 1248.5,159.5 1250.5,159.5 1252.5,159.5C 1252.5,161.5 1252.5,163.5 1252.5,165.5C 1250.5,165.5 1248.5,165.5 1246.5,165.5C 1246.5,170.5 1246.5,175.5 1246.5,180.5C 1248.5,180.5 1250.5,180.5 1252.5,180.5C 1252.5,182.5 1252.5,184.5 1252.5,186.5C 1247.73,187.449 1243.9,186.116 1241,182.5C 1240.5,176.843 1240.33,171.176 1240.5,165.5C 1239.17,165.5 1237.83,165.5 1236.5,165.5C 1236.5,163.5 1236.5,161.5 1236.5,159.5C 1237.5,159.5 1238.5,159.5 1239.5,159.5C 1239.5,157.5 1239.5,155.5 1239.5,153.5 Z"/></g>
<g><path style="opacity:1" fill="#d9974e" d="M 608.5,153.5 C 609.924,155.515 610.59,157.848 610.5,160.5C 609.076,158.485 608.41,156.152 608.5,153.5 Z"/></g>
<g><path style="opacity:1" fill="#140c0d" d="M 698.5,159.5 C 702.753,158.986 706.587,159.986 710,162.5C 710.483,161.552 710.649,160.552 710.5,159.5C 712.833,159.5 715.167,159.5 717.5,159.5C 717.5,168.5 717.5,177.5 717.5,186.5C 715.167,186.5 712.833,186.5 710.5,186.5C 710.649,185.448 710.483,184.448 710,183.5C 706.319,186.36 702.152,187.193 697.5,186C 694.667,184.5 692.5,182.333 691,179.5C 690.333,175.167 690.333,170.833 691,166.5C 692.742,163.254 695.242,160.921 698.5,159.5 Z"/></g>
<g><path style="opacity:1" fill="#0d080e" d="M 794.5,159.5 C 807.347,158.845 813.18,164.845 812,177.5C 806.718,186.83 799.218,188.996 789.5,184C 785.773,178.757 784.607,172.924 786,166.5C 788.441,163.546 791.275,161.213 794.5,159.5 Z"/></g>
<g><path style="opacity:1" fill="#0d080e" d="M 865.5,159.5 C 878.347,158.845 884.18,164.845 883,177.5C 877.718,186.83 870.218,188.996 860.5,184C 856.773,178.757 855.607,172.924 857,166.5C 859.441,163.546 862.275,161.213 865.5,159.5 Z"/></g>
<g><path style="opacity:1" fill="#180d10" d="M 931.5,159.5 C 933.833,159.5 936.167,159.5 938.5,159.5C 938.351,160.552 938.517,161.552 939,162.5C 945.22,158.146 950.887,158.813 956,164.5C 956.5,171.826 956.666,179.159 956.5,186.5C 954.5,186.5 952.5,186.5 950.5,186.5C 950.666,180.491 950.499,174.491 950,168.5C 946.685,164.895 943.018,164.561 939,167.5C 938.5,173.825 938.334,180.158 938.5,186.5C 936.167,186.5 933.833,186.5 931.5,186.5C 931.5,177.5 931.5,168.5 931.5,159.5 Z"/></g>
<g><path style="opacity:1" fill="#110a0c" d="M 970.5,159.5 C 982.082,158.752 987.749,164.085 987.5,175.5C 981.132,175.17 974.798,175.504 968.5,176.5C 971.094,182.043 974.761,182.877 979.5,179C 981.81,178.503 984.143,178.337 986.5,178.5C 985.789,182.382 983.456,184.882 979.5,186C 965.912,187.409 960.079,181.242 962,167.5C 964.074,163.923 966.907,161.256 970.5,159.5 Z"/></g>
<g><path style="opacity:1" fill="#0e0a0f" d="M 992.5,179.5 C 991.756,175.881 991.423,172.215 991.5,168.5C 996.217,159.43 1003.22,157.263 1012.5,162C 1016.92,165.43 1018.58,169.93 1017.5,175.5C 1011.17,175.5 1004.83,175.5 998.5,175.5C 999.123,180.288 1001.79,182.121 1006.5,181C 1009.51,178.498 1012.84,177.998 1016.5,179.5C 1010.9,187.003 1003.9,188.503 995.5,184C 994.614,182.385 993.614,180.885 992.5,179.5 Z"/></g>
<g><path style="opacity:1" fill="#110a0c" d="M 1105.5,159.5 C 1117.08,158.752 1122.75,164.085 1122.5,175.5C 1116.13,175.17 1109.8,175.504 1103.5,176.5C 1106.09,182.043 1109.76,182.877 1114.5,179C 1116.81,178.503 1119.14,178.337 1121.5,178.5C 1120.79,182.382 1118.46,184.882 1114.5,186C 1100.91,187.409 1095.08,181.242 1097,167.5C 1099.07,163.923 1101.91,161.256 1105.5,159.5 Z"/></g>
<g><path style="opacity:1" fill="#0e090b" d="M 1141.5,159.5 C 1143.5,159.5 1145.5,159.5 1147.5,159.5C 1147.34,160.873 1147.51,162.207 1148,163.5C 1154.38,158.096 1160.55,158.429 1166.5,164.5C 1169.8,172.002 1168.8,178.836 1163.5,185C 1158.18,187.316 1153.18,186.816 1148.5,183.5C 1147.51,188.792 1147.17,194.125 1147.5,199.5C 1145.5,199.5 1143.5,199.5 1141.5,199.5C 1141.5,186.167 1141.5,172.833 1141.5,159.5 Z"/></g>
<g><path style="opacity:1" fill="#18141a" d="M 825.5,159.5 C 828.247,159.187 830.914,159.52 833.5,160.5C 835.575,166.311 837.908,171.978 840.5,177.5C 843.42,171.827 845.42,165.827 846.5,159.5C 848.833,159.5 851.167,159.5 853.5,159.5C 848.86,172.831 843.527,185.998 837.5,199C 835.098,199.814 832.765,199.647 830.5,198.5C 832.086,194.161 834.086,189.994 836.5,186C 833.307,176.906 829.64,168.073 825.5,159.5 Z"/></g>
<g><path style="opacity:1" fill="#150a0f" d="M 888.5,159.5 C 890.5,159.5 892.5,159.5 894.5,159.5C 894.334,165.509 894.501,171.509 895,177.5C 898.178,182.371 901.845,182.704 906,178.5C 906.5,172.175 906.666,165.842 906.5,159.5C 908.833,159.5 911.167,159.5 913.5,159.5C 913.5,168.5 913.5,177.5 913.5,186.5C 911.167,186.5 908.833,186.5 906.5,186.5C 906.649,185.448 906.483,184.448 906,183.5C 902.662,186.318 898.829,187.151 894.5,186C 892.36,185.027 890.693,183.527 889.5,181.5C 888.503,174.197 888.169,166.863 888.5,159.5 Z"/></g>
<g><path style="opacity:1" fill="#130f17" d="M 1193.5,178.5 C 1193.43,178.938 1193.6,179.272 1194,179.5C 1195.97,173.955 1197.47,168.289 1198.5,162.5C 1198.5,161.5 1198.5,160.5 1198.5,159.5C 1201.12,159.232 1203.62,159.565 1206,160.5C 1207.82,166.79 1209.49,173.123 1211,179.5C 1212.95,172.93 1214.45,166.264 1215.5,159.5C 1217.5,159.5 1219.5,159.5 1221.5,159.5C 1221.6,162.692 1220.93,165.692 1219.5,168.5C 1217.72,171.505 1216.72,174.838 1216.5,178.5C 1215.63,181.112 1214.96,183.779 1214.5,186.5C 1211.83,186.5 1209.17,186.5 1206.5,186.5C 1206.25,180.15 1204.75,174.15 1202,168.5C 1200.2,174.429 1198.7,180.429 1197.5,186.5C 1192.83,187.351 1189.83,185.684 1188.5,181.5C 1188.28,177.838 1187.28,174.505 1185.5,171.5C 1185.59,168.848 1184.92,166.515 1183.5,164.5C 1182.96,162.883 1182.63,161.216 1182.5,159.5C 1184.79,159.244 1186.96,159.577 1189,160.5C 1190.85,166.553 1192.35,172.553 1193.5,178.5 Z"/></g>
<g><path style="opacity:1" fill="#22141a" d="M 1225.5,159.5 C 1227.83,159.5 1230.17,159.5 1232.5,159.5C 1232.5,168.5 1232.5,177.5 1232.5,186.5C 1230.17,186.5 1227.83,186.5 1225.5,186.5C 1225.5,177.5 1225.5,168.5 1225.5,159.5 Z"/></g>
<g><path style="opacity:1" fill="#f5f6f6" d="M 700.5,165.5 C 709.386,164.891 712.553,168.891 710,177.5C 707.091,180.394 703.591,181.227 699.5,180C 695.191,174.733 695.524,169.899 700.5,165.5 Z"/></g>
<g><path style="opacity:1" fill="#f3ab59" d="M 724.5,165.5 C 725.296,171.35 725.963,177.35 726.5,183.5C 725.778,183.082 725.278,182.416 725,181.5C 724.501,176.177 724.334,170.844 724.5,165.5 Z"/></g>
<g><path style="opacity:1" fill="#f8f5f0" d="M 763.5,165.5 C 771.775,164.706 774.942,168.373 773,176.5C 772.535,177.931 771.701,179.097 770.5,180C 761.237,181.698 757.737,177.865 760,168.5C 761.145,167.364 762.312,166.364 763.5,165.5 Z"/></g>
<g><path style="opacity:1" fill="#f0edec" d="M 795.5,165.5 C 804.386,164.891 807.553,168.891 805,177.5C 800.667,182.833 796.333,182.833 792,177.5C 791.333,174.5 791.333,171.5 792,168.5C 793.518,167.837 794.685,166.837 795.5,165.5 Z"/></g>
<g><path style="opacity:1" fill="#f0edec" d="M 866.5,165.5 C 875.386,164.891 878.553,168.891 876,177.5C 871.667,182.833 867.333,182.833 863,177.5C 862.333,174.5 862.333,171.5 863,168.5C 864.518,167.837 865.685,166.837 866.5,165.5 Z"/></g>
<g><path style="opacity:1" fill="#f5f7f6" d="M 970.5,165.5 C 973.187,165.336 975.854,165.503 978.5,166C 980.037,167.11 980.703,168.61 980.5,170.5C 976.5,170.5 972.5,170.5 968.5,170.5C 968.392,168.486 969.058,166.82 970.5,165.5 Z"/></g>
<g><path style="opacity:1" fill="#f8f5f0" d="M 1000.5,165.5 C 1003.19,165.336 1005.85,165.503 1008.5,166C 1010.04,167.11 1010.7,168.61 1010.5,170.5C 1006.5,170.5 1002.5,170.5 998.5,170.5C 998.392,168.486 999.058,166.82 1000.5,165.5 Z"/></g>
<g><path style="opacity:1" fill="#f5f4f1" d="M 1031.5,165.5 C 1040.39,164.891 1043.55,168.891 1041,177.5C 1038.09,180.394 1034.59,181.227 1030.5,180C 1027.68,176.662 1026.85,172.829 1028,168.5C 1029.15,167.364 1030.31,166.364 1031.5,165.5 Z"/></g>
<g><path style="opacity:1" fill="#f5f7f6" d="M 1105.5,165.5 C 1108.19,165.336 1110.85,165.503 1113.5,166C 1115.04,167.11 1115.7,168.61 1115.5,170.5C 1111.5,170.5 1107.5,170.5 1103.5,170.5C 1103.39,168.486 1104.06,166.82 1105.5,165.5 Z"/></g>
<g><path style="opacity:1" fill="#f2f4f6" d="M 1151.5,165.5 C 1159.88,164.716 1163.05,168.383 1161,176.5C 1156.82,183.018 1152.48,183.018 1148,176.5C 1146.66,171.96 1147.83,168.293 1151.5,165.5 Z"/></g>
<g><path style="opacity:1" fill="#cc8a45" d="M 1198.5,162.5 C 1197.47,168.289 1195.97,173.955 1194,179.5C 1193.6,179.272 1193.43,178.938 1193.5,178.5C 1194.57,172.868 1196.23,167.535 1198.5,162.5 Z"/></g>
<g><path style="opacity:1" fill="#d19049" d="M 611.5,164.5 C 612.924,166.515 613.59,168.848 613.5,171.5C 612.076,169.485 611.41,167.152 611.5,164.5 Z"/></g>
<g><path style="opacity:1" fill="#b06124" d="M 646.5,161.5 C 646.59,164.152 645.924,166.485 644.5,168.5C 644.41,165.848 645.076,163.515 646.5,161.5 Z"/></g>
<g><path style="opacity:1" fill="#e2ab65" d="M 1183.5,164.5 C 1184.92,166.515 1185.59,168.848 1185.5,171.5C 1184.08,169.485 1183.41,167.152 1183.5,164.5 Z"/></g>
<g><path style="opacity:1" fill="#ecac5e" d="M 991.5,168.5 C 991.423,172.215 991.756,175.881 992.5,179.5C 991.003,177.71 990.336,175.544 990.5,173C 990.508,171.293 990.842,169.793 991.5,168.5 Z"/></g>
<g><path style="opacity:1" fill="#6092d0" d="M 1219.5,168.5 C 1219.28,172.162 1218.28,175.495 1216.5,178.5C 1216.72,174.838 1217.72,171.505 1219.5,168.5 Z"/></g>
<g><path style="opacity:1" fill="#dda562" d="M 1185.5,171.5 C 1187.28,174.505 1188.28,177.838 1188.5,181.5C 1186.72,178.495 1185.72,175.162 1185.5,171.5 Z"/></g>
<g><path style="opacity:1" fill="#181017" d="M 1292.5,179.5 C 1298.11,178.079 1300.28,180.079 1299,185.5C 1293.08,187.416 1290.92,185.416 1292.5,179.5 Z"/></g>
<g><path style="opacity:1" fill="#dda263" d="M 635.5,176.5 C 636.87,179.619 637.87,182.952 638.5,186.5C 636.32,183.619 635.32,180.286 635.5,176.5 Z"/></g>
<g><path style="opacity:1" fill="#878485" d="M 911.5,229.5 C 913.167,229.5 914.833,229.5 916.5,229.5C 916.771,231.821 916.104,233.821 914.5,235.5C 916.104,237.179 916.771,239.179 916.5,241.5C 915.5,241.5 914.5,241.5 913.5,241.5C 913.5,245.833 913.5,250.167 913.5,254.5C 911.833,254.5 910.167,254.5 908.5,254.5C 908.887,249.186 908.221,244.02 906.5,239C 907.654,235.477 909.321,232.311 911.5,229.5 Z"/></g>
<g><path style="opacity:1" fill="#908c8d" d="M 1100.5,228.5 C 1104.48,228.629 1105.82,230.463 1104.5,234C 1098.55,235.227 1097.21,233.394 1100.5,228.5 Z"/></g>
<g><path style="opacity:1" fill="#8b8a90" d="M 686.5,230.5 C 688.5,230.5 690.5,230.5 692.5,230.5C 692.5,238.5 692.5,246.5 692.5,254.5C 690.5,254.5 688.5,254.5 686.5,254.5C 686.5,246.5 686.5,238.5 686.5,230.5 Z"/></g>
<g><path style="opacity:1" fill="#848386" d="M 801.5,230.5 C 803.167,230.5 804.833,230.5 806.5,230.5C 806.336,233.187 806.503,235.854 807,238.5C 810.864,235.75 814.531,236.084 818,239.5C 818.499,244.489 818.666,249.489 818.5,254.5C 816.833,254.5 815.167,254.5 813.5,254.5C 813.666,250.486 813.499,246.486 813,242.5C 811,241.167 809,241.167 807,242.5C 806.501,246.486 806.334,250.486 806.5,254.5C 804.833,254.5 803.167,254.5 801.5,254.5C 801.5,246.5 801.5,238.5 801.5,230.5 Z"/></g>
<g><path style="opacity:1" fill="#89878b" d="M 1157.5,230.5 C 1159.5,230.5 1161.5,230.5 1163.5,230.5C 1163.19,232.924 1163.53,235.257 1164.5,237.5C 1174.14,235.644 1177.98,239.644 1176,249.5C 1175.17,251.667 1173.67,253.167 1171.5,254C 1166.83,253.18 1162.16,253.347 1157.5,254.5C 1157.5,246.5 1157.5,238.5 1157.5,230.5 Z"/></g>
<g><path style="opacity:1" fill="#918a8a" d="M 1198.5,230.5 C 1200.5,230.5 1202.5,230.5 1204.5,230.5C 1204.5,238.5 1204.5,246.5 1204.5,254.5C 1202.5,254.5 1200.5,254.5 1198.5,254.5C 1198.5,246.5 1198.5,238.5 1198.5,230.5 Z"/></g>
<g><path style="opacity:1" fill="#89878a" d="M 666.5,232.5 C 671.179,232.334 675.845,232.501 680.5,233C 684.957,238.135 684.29,242.468 678.5,246C 676.527,246.495 674.527,246.662 672.5,246.5C 672.5,249.167 672.5,251.833 672.5,254.5C 670.5,254.5 668.5,254.5 666.5,254.5C 666.5,247.167 666.5,239.833 666.5,232.5 Z"/></g>
<g><path style="opacity:1" fill="#858588" d="M 1087.5,232.5 C 1089.17,232.5 1090.83,232.5 1092.5,232.5C 1092.5,233.833 1092.5,235.167 1092.5,236.5C 1093.83,236.5 1095.17,236.5 1096.5,236.5C 1096.5,238.167 1096.5,239.833 1096.5,241.5C 1095.17,241.5 1093.83,241.5 1092.5,241.5C 1092.5,244.167 1092.5,246.833 1092.5,249.5C 1093.83,249.5 1095.17,249.5 1096.5,249.5C 1096.5,251.167 1096.5,252.833 1096.5,254.5C 1092.99,255.124 1090.15,254.124 1088,251.5C 1087.81,247.198 1086.97,243.032 1085.5,239C 1086.62,236.941 1087.28,234.774 1087.5,232.5 Z"/></g>
<g><path style="opacity:1" fill="#fffefb" d="M 672.5,236.5 C 676.5,235.833 678.167,237.5 677.5,241.5C 675.833,241.5 674.167,241.5 672.5,241.5C 672.5,239.833 672.5,238.167 672.5,236.5 Z"/></g>
<g><path style="opacity:1" fill="#8a8a8b" d="M 699.5,236.5 C 707.971,234.869 712.304,238.202 712.5,246.5C 708.445,246.176 704.445,246.509 700.5,247.5C 701.212,249.046 702.378,250.046 704,250.5C 706.621,248.48 709.455,248.147 712.5,249.5C 709.331,254.118 704.998,255.618 699.5,254C 694.19,248.096 694.19,242.263 699.5,236.5 Z"/></g>
<g><path style="opacity:1" fill="#888586" d="M 719.5,236.5 C 722.602,236.154 725.435,236.821 728,238.5C 729.401,236.808 731.234,236.141 733.5,236.5C 733.5,242.5 733.5,248.5 733.5,254.5C 731.234,254.859 729.401,254.192 728,252.5C 722.677,255.78 718.343,254.78 715,249.5C 713.379,243.923 714.879,239.589 719.5,236.5 Z"/></g>
<g><path style="opacity:1" fill="#888788" d="M 740.5,236.5 C 743.649,236.211 746.649,236.711 749.5,238C 751.037,239.11 751.703,240.61 751.5,242.5C 748.979,242.56 746.646,241.894 744.5,240.5C 743.833,240.833 743.167,241.167 742.5,241.5C 745.788,243.219 748.955,245.219 752,247.5C 753.042,250.804 751.875,252.971 748.5,254C 744.171,255.151 740.338,254.318 737,251.5C 736.517,250.552 736.351,249.552 736.5,248.5C 739.361,248.342 742.028,249.008 744.5,250.5C 745.167,250.167 745.833,249.833 746.5,249.5C 743.629,248.051 740.795,246.385 738,244.5C 737.833,243.5 737.667,242.5 737.5,241.5C 737.771,239.307 738.771,237.641 740.5,236.5 Z"/></g>
<g><path style="opacity:1" fill="#8e8d8e" d="M 759.5,236.5 C 768.108,235.286 772.441,238.953 772.5,247.5C 768.445,247.176 764.445,247.509 760.5,248.5C 761.919,250.915 763.585,251.081 765.5,249C 772.667,247.567 773.334,249.234 767.5,254C 756.831,255.662 752.664,251.162 755,240.5C 756.397,238.93 757.897,237.596 759.5,236.5 Z"/></g>
<g><path style="opacity:1" fill="#8b898a" d="M 785.5,236.5 C 791.537,235.101 795.871,237.101 798.5,242.5C 797.5,242.833 796.5,243.167 795.5,243.5C 792.933,242.162 790.266,241.662 787.5,242C 786.409,244.064 786.242,246.231 787,248.5C 790.398,249.034 793.898,249.034 797.5,248.5C 797.548,251.292 796.215,253.125 793.5,254C 783.45,255.739 779.283,251.573 781,241.5C 782.707,239.963 784.207,238.296 785.5,236.5 Z"/></g>
<g><path style="opacity:1" fill="#898687" d="M 826.5,236.5 C 836.046,235.224 840.546,239.224 840,248.5C 837.081,254.025 832.581,255.858 826.5,254C 819.875,248.168 819.875,242.335 826.5,236.5 Z"/></g>
<g><path style="opacity:1" fill="#878688" d="M 847.5,236.5 C 857.646,235.293 861.813,239.627 860,249.5C 856.702,254.22 852.202,255.72 846.5,254C 842.741,250.257 841.574,245.757 843,240.5C 844.397,238.93 845.897,237.596 847.5,236.5 Z"/></g>
<g><path style="opacity:1" fill="#888788" d="M 866.5,236.5 C 869.649,236.211 872.649,236.711 875.5,238C 877.037,239.11 877.703,240.61 877.5,242.5C 874.979,242.56 872.646,241.894 870.5,240.5C 869.833,240.833 869.167,241.167 868.5,241.5C 871.788,243.219 874.955,245.219 878,247.5C 879.042,250.804 877.875,252.971 874.5,254C 870.171,255.151 866.338,254.318 863,251.5C 862.517,250.552 862.351,249.552 862.5,248.5C 865.361,248.342 868.028,249.008 870.5,250.5C 871.167,250.167 871.833,249.833 872.5,249.5C 869.629,248.051 866.795,246.385 864,244.5C 863.833,243.5 863.667,242.5 863.5,241.5C 863.771,239.307 864.771,237.641 866.5,236.5 Z"/></g>
<g><path style="opacity:1" fill="#8e8d8e" d="M 885.5,236.5 C 894.108,235.286 898.441,238.953 898.5,247.5C 894.445,247.176 890.445,247.509 886.5,248.5C 887.919,250.915 889.585,251.081 891.5,249C 898.667,247.567 899.334,249.234 893.5,254C 882.831,255.662 878.664,251.162 881,240.5C 882.397,238.93 883.897,237.596 885.5,236.5 Z"/></g>
<g><path style="opacity:1" fill="#878688" d="M 937.5,236.5 C 947.646,235.293 951.813,239.627 950,249.5C 946.702,254.22 942.202,255.72 936.5,254C 932.741,250.257 931.574,245.757 933,240.5C 934.397,238.93 935.897,237.596 937.5,236.5 Z"/></g>
<g><path style="opacity:1" fill="#88878a" d="M 953.5,236.5 C 958.162,237.653 962.828,237.82 967.5,237C 968.333,237.833 969.167,238.667 970,239.5C 974.333,235.5 978.667,235.5 983,239.5C 983.499,244.489 983.666,249.489 983.5,254.5C 981.833,254.5 980.167,254.5 978.5,254.5C 978.666,250.486 978.499,246.486 978,242.5C 976,241.167 974,241.167 972,242.5C 971.501,246.486 971.334,250.486 971.5,254.5C 969.5,254.5 967.5,254.5 965.5,254.5C 965.666,250.486 965.499,246.486 965,242.5C 963.333,241.167 961.667,241.167 960,242.5C 959.501,246.486 959.334,250.486 959.5,254.5C 957.5,254.5 955.5,254.5 953.5,254.5C 953.5,248.5 953.5,242.5 953.5,236.5 Z"/></g>
<g><path style="opacity:1" fill="#898685" d="M 997.5,236.5 C 1000.6,236.154 1003.44,236.821 1006,238.5C 1007.4,236.808 1009.23,236.141 1011.5,236.5C 1011.5,242.5 1011.5,248.5 1011.5,254.5C 1009.23,254.859 1007.4,254.192 1006,252.5C 1001.43,255.561 997.431,254.894 994,250.5C 991.267,244.722 992.434,240.056 997.5,236.5 Z"/></g>
<g><path style="opacity:1" fill="#898688" d="M 1015.5,236.5 C 1018.08,236.083 1020.25,236.75 1022,238.5C 1025.86,235.75 1029.53,236.084 1033,239.5C 1033.5,244.489 1033.67,249.489 1033.5,254.5C 1031.83,254.5 1030.17,254.5 1028.5,254.5C 1028.67,250.486 1028.5,246.486 1028,242.5C 1026,241.167 1024,241.167 1022,242.5C 1021.5,246.486 1021.33,250.486 1021.5,254.5C 1019.5,254.5 1017.5,254.5 1015.5,254.5C 1015.5,248.5 1015.5,242.5 1015.5,236.5 Z"/></g>
<g><path style="opacity:1" fill="#89888b" d="M 1048.5,236.5 C 1059.34,235.501 1063.51,240.168 1061,250.5C 1055.94,255.383 1050.61,255.716 1045,251.5C 1042.05,245.287 1043.21,240.287 1048.5,236.5 Z"/></g>
<g><path style="opacity:1" fill="#89888c" d="M 1064.5,236.5 C 1069.16,237.653 1073.83,237.82 1078.5,237C 1080.67,237.833 1082.17,239.333 1083,241.5C 1084.98,251.356 1081.14,255.356 1071.5,253.5C 1070.51,256.768 1070.18,260.102 1070.5,263.5C 1068.5,263.5 1066.5,263.5 1064.5,263.5C 1064.5,254.5 1064.5,245.5 1064.5,236.5 Z"/></g>
<g><path style="opacity:1" fill="#898687" d="M 1112.5,236.5 C 1122.05,235.224 1126.55,239.224 1126,248.5C 1123.08,254.025 1118.58,255.858 1112.5,254C 1105.87,248.168 1105.87,242.335 1112.5,236.5 Z"/></g>
<g><path style="opacity:1" fill="#848386" d="M 1129.5,236.5 C 1131.77,236.141 1133.6,236.808 1135,238.5C 1138.86,235.75 1142.53,236.084 1146,239.5C 1146.5,244.489 1146.67,249.489 1146.5,254.5C 1144.83,254.5 1143.17,254.5 1141.5,254.5C 1141.67,250.486 1141.5,246.486 1141,242.5C 1139,241.167 1137,241.167 1135,242.5C 1134.5,246.486 1134.33,250.486 1134.5,254.5C 1132.83,254.5 1131.17,254.5 1129.5,254.5C 1129.5,248.5 1129.5,242.5 1129.5,236.5 Z"/></g>
<g><path style="opacity:1" fill="#8e8d8e" d="M 1183.5,236.5 C 1192.11,235.286 1196.44,238.953 1196.5,247.5C 1192.45,247.176 1188.45,247.509 1184.5,248.5C 1185.92,250.915 1187.59,251.081 1189.5,249C 1196.67,247.567 1197.33,249.234 1191.5,254C 1180.83,255.662 1176.66,251.162 1179,240.5C 1180.4,238.93 1181.9,237.596 1183.5,236.5 Z"/></g>
<g><path style="opacity:1" fill="#89888b" d="M 1212.5,236.5 C 1223.34,235.501 1227.51,240.168 1225,250.5C 1219.94,255.383 1214.61,255.716 1209,251.5C 1206.05,245.287 1207.21,240.287 1212.5,236.5 Z"/></g>
<g><path style="opacity:1" fill="#858486" d="M 919.5,236.5 C 921.821,236.229 923.821,236.896 925.5,238.5C 926.85,237.05 928.516,236.383 930.5,236.5C 930.5,238.5 930.5,240.5 930.5,242.5C 928.738,242.357 927.071,242.691 925.5,243.5C 924.511,247.107 924.177,250.774 924.5,254.5C 922.833,254.5 921.167,254.5 919.5,254.5C 919.5,248.5 919.5,242.5 919.5,236.5 Z"/></g>
<g><path style="opacity:1" fill="#858282" d="M 1099.5,236.5 C 1101.17,236.5 1102.83,236.5 1104.5,236.5C 1104.5,242.5 1104.5,248.5 1104.5,254.5C 1102.83,254.5 1101.17,254.5 1099.5,254.5C 1099.5,248.5 1099.5,242.5 1099.5,236.5 Z"/></g>
<g><path style="opacity:1" fill="#89888c" d="M 1227.5,236.5 C 1229.47,236.261 1231.3,236.594 1233,237.5C 1233.77,241.147 1234.44,244.814 1235,248.5C 1235.53,244.417 1236.36,240.417 1237.5,236.5C 1239.83,236.5 1242.17,236.5 1244.5,236.5C 1246.46,252.379 1247.79,252.379 1248.5,236.5C 1250.5,236.5 1252.5,236.5 1254.5,236.5C 1253.21,242.261 1251.55,247.928 1249.5,253.5C 1247.6,254.466 1245.6,254.799 1243.5,254.5C 1241.83,239.833 1240.17,239.833 1238.5,254.5C 1236.17,254.5 1233.83,254.5 1231.5,254.5C 1230.48,248.426 1229.15,242.426 1227.5,236.5 Z"/></g>
<g><path style="opacity:1" fill="#f7f7f3" d="M 721.5,241.5 C 728.004,241.138 729.671,243.638 726.5,249C 720.797,249.456 719.13,246.956 721.5,241.5 Z"/></g>
<g><path style="opacity:1" fill="#f8faf7" d="M 828.5,241.5 C 834.313,241.062 835.98,243.562 833.5,249C 827.593,249.746 825.927,247.246 828.5,241.5 Z"/></g>
<g><path style="opacity:1" fill="#f6faf9" d="M 848.5,241.5 C 854.313,241.062 855.98,243.562 853.5,249C 847.797,249.456 846.13,246.956 848.5,241.5 Z"/></g>
<g><path style="opacity:1" fill="#f6faf9" d="M 938.5,241.5 C 944.313,241.062 945.98,243.562 943.5,249C 937.797,249.456 936.13,246.956 938.5,241.5 Z"/></g>
<g><path style="opacity:1" fill="#f9f9f6" d="M 1000.5,241.5 C 1006.49,241.664 1007.82,244.164 1004.5,249C 998.412,249.084 997.079,246.584 1000.5,241.5 Z"/></g>
<g><path style="opacity:1" fill="#fdfaf5" d="M 1050.5,241.5 C 1056.49,241.664 1057.82,244.164 1054.5,249C 1052.89,249.72 1051.39,249.554 1050,248.5C 1049.3,246.071 1049.46,243.738 1050.5,241.5 Z"/></g>
<g><path style="opacity:1" fill="#fbfbf7" d="M 1071.5,241.5 C 1077.31,241.062 1078.98,243.562 1076.5,249C 1070.59,249.746 1068.93,247.246 1071.5,241.5 Z"/></g>
<g><path style="opacity:1" fill="#f8faf7" d="M 1114.5,241.5 C 1120.31,241.062 1121.98,243.562 1119.5,249C 1113.59,249.746 1111.93,247.246 1114.5,241.5 Z"/></g>
<g><path style="opacity:1" fill="#fbfbf7" d="M 1164.5,241.5 C 1170.31,241.062 1171.98,243.562 1169.5,249C 1163.59,249.746 1161.93,247.246 1164.5,241.5 Z"/></g>
<g><path style="opacity:1" fill="#fdfaf5" d="M 1214.5,241.5 C 1220.49,241.664 1221.82,244.164 1218.5,249C 1216.89,249.72 1215.39,249.554 1214,248.5C 1213.3,246.071 1213.46,243.738 1214.5,241.5 Z"/></g>
<g><path style="opacity:1" fill="#1d1d1d" d="M 880.5,336.5 C 887.983,336.481 891.483,340.148 891,347.5C 886,354.167 881,354.167 876,347.5C 875.333,345.5 875.333,343.5 876,341.5C 877.707,339.963 879.207,338.296 880.5,336.5 Z"/></g>
<g><path style="opacity:1" fill="#1b1520" d="M 1004.5,337.5 C 1006.46,337.948 1006.8,338.948 1005.5,340.5C 1004.61,339.675 1004.28,338.675 1004.5,337.5 Z"/></g>
<g><path style="opacity:1" fill="#dedede" d="M 881.5,339.5 C 888.368,340.222 889.035,342.555 883.5,346.5C 883.167,346.167 882.833,345.833 882.5,345.5C 883.167,344.5 883.833,343.5 884.5,342.5C 883.609,341.41 882.609,341.41 881.5,342.5C 880.438,341.575 880.438,340.575 881.5,339.5 Z"/></g>
<g><path style="opacity:1" fill="#28171f" d="M 940.5,339.5 C 942.59,339.45 943.923,340.45 944.5,342.5C 943.167,344.833 943.167,347.167 944.5,349.5C 943.349,350.731 942.183,350.731 941,349.5C 940.028,346.087 939.862,342.753 940.5,339.5 Z"/></g>
<g><path style="opacity:1" fill="#140300" d="M 998.5,339.5 C 1000.08,340.066 1001.41,341.066 1002.5,342.5C 999.833,344.833 999.833,347.167 1002.5,349.5C 1001.35,350.731 1000.18,350.731 999,349.5C 998.028,346.087 997.862,342.753 998.5,339.5 Z"/></g>
<g><path style="opacity:1" fill="#341923" d="M 1038.5,339.5 C 1043.17,340.273 1044.17,342.44 1041.5,346C 1041.84,347.365 1042.51,348.532 1043.5,349.5C 1040.57,350.864 1038.91,349.864 1038.5,346.5C 1037.44,344.106 1037.44,341.772 1038.5,339.5 Z"/></g>
<g><path style="opacity:1" fill="#2b1923" d="M 912.5,341.5 C 914.201,341.966 915.701,341.966 917,341.5C 916.231,344.355 915.731,347.355 915.5,350.5C 914.5,350.5 913.5,350.5 912.5,350.5C 912.5,347.5 912.5,344.5 912.5,341.5 Z"/></g>
<g><path style="opacity:1" fill="#251c20" d="M 921.5,341.5 C 925.349,341.019 927.349,342.686 927.5,346.5C 925.396,346.201 923.396,346.534 921.5,347.5C 923.413,348.051 925.413,348.218 927.5,348C 925.662,350.303 923.328,350.969 920.5,350C 919.014,346.896 919.347,344.062 921.5,341.5 Z"/></g>
<g><path style="opacity:1" fill="#211621" d="M 930.5,341.5 C 933.272,342.371 935.938,342.371 938.5,341.5C 938.5,344.5 938.5,347.5 938.5,350.5C 935.723,350.214 932.889,349.88 930,349.5C 929.278,346.739 929.445,344.073 930.5,341.5 Z"/></g>
<g><path style="opacity:1" fill="#231c21" d="M 948.5,341.5 C 952.56,340.848 954.56,342.515 954.5,346.5C 952.473,346.338 950.473,346.505 948.5,347C 949.025,347.692 949.692,348.192 950.5,348.5C 954.172,346.95 954.839,347.45 952.5,350C 948.663,351 946.663,349.5 946.5,345.5C 946.803,343.886 947.47,342.552 948.5,341.5 Z"/></g>
<g><path style="opacity:1" fill="#11081f" d="M 960.5,341.5 C 962.932,341.636 965.432,341.969 968,342.5C 968.818,345.227 968.652,347.894 967.5,350.5C 965.5,341.167 963.5,341.167 961.5,350.5C 960.516,347.572 960.183,344.572 960.5,341.5 Z"/></g>
<g><path style="opacity:1" fill="#231c21" d="M 972.5,341.5 C 976.56,340.848 978.56,342.515 978.5,346.5C 976.473,346.338 974.473,346.505 972.5,347C 973.025,347.692 973.692,348.192 974.5,348.5C 978.172,346.95 978.839,347.45 976.5,350C 972.663,351 970.663,349.5 970.5,345.5C 970.803,343.886 971.47,342.552 972.5,341.5 Z"/></g>
<g><path style="opacity:1" fill="#02001e" d="M 1004.5,341.5 C 1005.76,342.514 1006.43,344.014 1006.5,346C 1006.17,347.5 1005.83,349 1005.5,350.5C 1004.52,347.572 1004.18,344.572 1004.5,341.5 Z"/></g>
<g><path style="opacity:1" fill="#231c21" d="M 1030.5,341.5 C 1034.56,340.848 1036.56,342.515 1036.5,346.5C 1034.47,346.338 1032.47,346.505 1030.5,347C 1031.03,347.692 1031.69,348.192 1032.5,348.5C 1036.17,346.95 1036.84,347.45 1034.5,350C 1030.66,351 1028.66,349.5 1028.5,345.5C 1028.8,343.886 1029.47,342.552 1030.5,341.5 Z"/></g>
<g><path style="opacity:1" fill="#1f151b" d="M 1010.5,341.5 C 1013.02,341.128 1015.02,341.961 1016.5,344C 1015.1,344.595 1013.77,344.428 1012.5,343.5C 1011.17,345.167 1011.17,346.833 1012.5,348.5C 1013.89,347.355 1015.22,347.355 1016.5,348.5C 1014.08,351.128 1011.58,351.128 1009,348.5C 1008.17,345.829 1008.67,343.496 1010.5,341.5 Z"/></g>
<g><path style="opacity:1" fill="#dde3d8" d="M 932.5,343.5 C 935.956,344.536 936.29,346.203 933.5,348.5C 931.296,347.218 930.962,345.551 932.5,343.5 Z"/></g>
<g><path style="opacity:1" fill="#dba059" d="M 980.5,341.5 C 980.993,343.806 981.326,346.139 981.5,348.5C 979.688,346.287 979.355,343.953 980.5,341.5 Z"/></g>
<g><path style="opacity:1" fill="#1f1519" d="M 902.5,339.5 C 905.365,339.055 907.865,339.722 910,341.5C 910.591,342.483 910.257,343.15 909,343.5C 907.418,341.971 905.585,341.471 903.5,342C 901.878,347.931 903.712,349.431 909,346.5C 910.726,347.648 910.559,348.815 908.5,350C 901.495,351.324 898.995,348.49 901,341.5C 901.717,340.956 902.217,340.289 902.5,339.5 Z"/></g>
<g><path style="opacity:1" fill="#2c1720" d="M 1018.5,338.5 C 1019.5,338.5 1020.5,338.5 1021.5,338.5C 1021.34,340.527 1021.5,342.527 1022,344.5C 1022.61,341.968 1024.11,341.135 1026.5,342C 1025.74,343.512 1024.74,344.846 1023.5,346C 1027.46,351.012 1026.96,351.512 1022,347.5C 1021.52,348.448 1021.35,349.448 1021.5,350.5C 1020.5,350.5 1019.5,350.5 1018.5,350.5C 1018.5,346.5 1018.5,342.5 1018.5,338.5 Z"/></g>
<g><path style="opacity:1" fill="#fefffe" d="M 882.5,347.5 C 884.337,347.639 884.67,348.306 883.5,349.5C 882.702,349.043 882.369,348.376 882.5,347.5 Z"/></g>
<g><path style="opacity:1" fill="#211927" d="M 980.5,341.5 C 982.825,342.655 983.992,344.655 984,347.5C 984.495,345.527 984.662,343.527 984.5,341.5C 985.833,341.5 987.167,341.5 988.5,341.5C 989.492,349.475 990.492,349.475 991.5,341.5C 991.833,342 992.167,342.5 992.5,343C 991.678,345.434 991.344,347.934 991.5,350.5C 990.325,350.719 989.325,350.386 988.5,349.5C 986.605,344.275 985.605,344.609 985.5,350.5C 983.517,350.843 982.183,350.176 981.5,348.5C 981.326,346.139 980.993,343.806 980.5,341.5 Z"/></g>
<g><path style="opacity:1" fill="#010101" d="M 1418.5,324.5 C 1419.66,338.327 1419.83,352.327 1419,366.5C 1418.5,367 1418,367.5 1417.5,368C 1112.5,368.667 807.5,368.667 502.5,368C 807.167,367.667 1111.83,367.333 1416.5,367C 1417,366.5 1417.5,366 1418,365.5C 1418.5,351.837 1418.67,338.171 1418.5,324.5 Z"/></g>
<g><path style="opacity:1" fill="#000000" d="M 502.5,388.5 C 807.167,388.333 1111.83,388.5 1416.5,389C 1417.67,389.5 1418.5,390.333 1419,391.5C 1419.67,405.167 1419.67,418.833 1419,432.5C 1418.5,433.667 1417.67,434.5 1416.5,435C 1111.83,435.667 807.167,435.667 502.5,435C 501.333,434.5 500.5,433.667 500,432.5C 499.333,418.833 499.333,405.167 500,391.5C 500.698,390.309 501.531,389.309 502.5,388.5 Z"/></g>
<g><path style="opacity:1" fill="#e3d7c9" d="M 918.5,404.5 C 920.346,404.222 921.68,404.889 922.5,406.5C 921.311,407.429 919.978,407.762 918.5,407.5C 918.5,406.5 918.5,405.5 918.5,404.5 Z"/></g>
<g><path style="opacity:1" fill="#f1ebdc" d="M 989.5,407.5 C 988.662,407.158 988.328,406.492 988.5,405.5C 989.209,404.596 990.209,404.263 991.5,404.5C 991.715,406.179 991.048,407.179 989.5,407.5 Z"/></g>
<g><path style="opacity:1" fill="#ececec" d="M 882.5,406.5 C 887.833,406.5 893.167,406.5 898.5,406.5C 897.167,409.833 897.167,413.167 898.5,416.5C 893.167,416.5 887.833,416.5 882.5,416.5C 883.833,413.167 883.833,409.833 882.5,406.5 Z"/></g>
<g><path style="opacity:1" fill="#e1ddd8" d="M 906.5,406.5 C 909.943,406.35 911.943,408.017 912.5,411.5C 913.357,410.264 914.023,408.931 914.5,407.5C 915.325,406.614 916.325,406.281 917.5,406.5C 916.321,410.049 915.321,413.716 914.5,417.5C 912.712,417.785 911.045,417.452 909.5,416.5C 908.495,413.154 907.495,409.821 906.5,406.5 Z"/></g>
<g><path style="opacity:1" fill="#e9ebe7" d="M 950.5,406.5 C 952.167,406.5 953.833,406.5 955.5,406.5C 956.475,412.888 957.808,412.888 959.5,406.5C 960.833,406.5 962.167,406.5 963.5,406.5C 963.5,410.167 963.5,413.833 963.5,417.5C 962.5,417.5 961.5,417.5 960.5,417.5C 960.167,413.5 959.833,413.5 959.5,417.5C 955.962,417.785 954.129,416.118 954,412.5C 953.506,414.134 953.34,415.801 953.5,417.5C 952.5,417.5 951.5,417.5 950.5,417.5C 950.5,413.833 950.5,410.167 950.5,406.5 Z"/></g>
<g><path style="opacity:1" fill="#dfe3e3" d="M 977.5,406.5 C 980.572,406.183 983.572,406.516 986.5,407.5C 984.711,410.556 984.044,413.889 984.5,417.5C 983.167,417.5 981.833,417.5 980.5,417.5C 980.5,414.5 980.5,411.5 980.5,408.5C 978.821,408.715 977.821,408.048 977.5,406.5 Z"/></g>
<g><path style="opacity:1" fill="#e6eaea" d="M 1002.5,405.5 C 1003.5,405.5 1004.5,405.5 1005.5,405.5C 1005.34,407.199 1005.51,408.866 1006,410.5C 1011.71,407.442 1012.54,408.275 1008.5,413C 1009.26,414.512 1010.26,415.846 1011.5,417C 1009.3,417.825 1007.47,417.325 1006,415.5C 1005.29,416.973 1004.12,417.64 1002.5,417.5C 1002.5,413.5 1002.5,409.5 1002.5,405.5 Z"/></g>
<g><path style="opacity:1" fill="#ddded9" d="M 1022.5,406.5 C 1024.45,406.227 1025.95,406.893 1027,408.5C 1026.19,411.5 1026.35,414.5 1027.5,417.5C 1025.86,417.714 1024.36,417.38 1023,416.5C 1021.8,413.133 1021.63,409.8 1022.5,406.5 Z"/></g>
<g><path style="opacity:1" fill="#7f7f7f" d="M 885.5,407.5 C 888.833,407.5 892.167,407.5 895.5,407.5C 895.5,410.167 895.5,412.833 895.5,415.5C 892.167,415.5 888.833,415.5 885.5,415.5C 885.5,412.833 885.5,410.167 885.5,407.5 Z"/></g>
<g><path style="opacity:1" fill="#e8f4f5" d="M 918.5,408.5 C 919.5,408.5 920.5,408.5 921.5,408.5C 921.5,411.5 921.5,414.5 921.5,417.5C 920.5,417.5 919.5,417.5 918.5,417.5C 918.5,414.5 918.5,411.5 918.5,408.5 Z"/></g>
<g><path style="opacity:1" fill="#e4e5e6" d="M 924.5,408.5 C 926.527,408.338 928.527,408.505 930.5,409C 931.38,410.356 931.714,411.856 931.5,413.5C 929.712,413.215 928.045,413.548 926.5,414.5C 927.533,415.452 928.7,415.452 930,414.5C 931.826,415.01 931.993,415.844 930.5,417C 922.749,418.091 920.749,415.258 924.5,408.5 Z"/></g>
<g><path style="opacity:1" fill="#e8e1d7" d="M 964.5,408.5 C 967.48,408.241 969.313,409.574 970,412.5C 970.49,411.207 970.657,409.873 970.5,408.5C 971.978,408.238 973.311,408.571 974.5,409.5C 972.549,412.954 971.049,416.621 970,420.5C 968.989,421.337 967.822,421.67 966.5,421.5C 966.519,419.94 966.852,418.44 967.5,417C 966.197,414.256 965.197,411.423 964.5,408.5 Z"/></g>
<g><path style="opacity:1" fill="#0c63a5" d="M 988.5,405.5 C 988.328,406.492 988.662,407.158 989.5,407.5C 989.5,407.833 989.5,408.167 989.5,408.5C 988.523,411.287 988.19,414.287 988.5,417.5C 987.167,413.5 987.167,409.5 988.5,405.5 Z"/></g>
<g><path style="opacity:1" fill="#faeedb" d="M 989.5,408.5 C 991.388,410.988 992.055,413.988 991.5,417.5C 990.5,417.5 989.5,417.5 988.5,417.5C 988.19,414.287 988.523,411.287 989.5,408.5 Z"/></g>
<g><path style="opacity:1" fill="#eae7e2" d="M 994.5,408.5 C 997.346,408.03 999.679,408.863 1001.5,411C 999.527,411.495 997.527,411.662 995.5,411.5C 995.312,413.103 995.812,414.437 997,415.5C 998.494,414.253 999.994,414.253 1001.5,415.5C 999.133,417.395 996.466,417.895 993.5,417C 992.014,413.896 992.347,411.062 994.5,408.5 Z"/></g>
<g><path style="opacity:1" fill="#e4e5e6" d="M 1013.5,408.5 C 1015.53,408.338 1017.53,408.505 1019.5,409C 1020.38,410.356 1020.71,411.856 1020.5,413.5C 1018.71,413.215 1017.05,413.548 1015.5,414.5C 1016.53,415.452 1017.7,415.452 1019,414.5C 1020.83,415.01 1020.99,415.844 1019.5,417C 1011.75,418.091 1009.75,415.258 1013.5,408.5 Z"/></g>
<g><path style="opacity:1" fill="#e4e1dd" d="M 1029.5,408.5 C 1031.53,408.338 1033.53,408.505 1035.5,409C 1036.81,410.395 1036.48,411.395 1034.5,412C 1036.53,413.396 1036.86,415.062 1035.5,417C 1033.5,417.667 1031.5,417.667 1029.5,417C 1028.01,415.844 1028.17,415.01 1030,414.5C 1031.16,415.187 1032.33,415.353 1033.5,415C 1032.1,413.731 1030.43,413.231 1028.5,413.5C 1028.37,411.708 1028.7,410.042 1029.5,408.5 Z"/></g>
<g><path style="opacity:1" fill="#ececec" d="M 886.5,408.5 C 889.167,408.5 891.833,408.5 894.5,408.5C 894.5,410.5 894.5,412.5 894.5,414.5C 891.833,414.5 889.167,414.5 886.5,414.5C 886.5,412.5 886.5,410.5 886.5,408.5 Z"/></g>
<g><path style="opacity:1" fill="#eae3d9" d="M 932.5,408.5 C 933.833,408.5 935.167,408.5 936.5,408.5C 936.833,415.167 937.167,415.167 937.5,408.5C 940.86,407.79 942.693,409.124 943,412.5C 943.49,411.207 943.657,409.873 943.5,408.5C 944.5,408.5 945.5,408.5 946.5,408.5C 946.127,411.574 945.461,414.574 944.5,417.5C 942.019,417.677 940.186,416.677 939,414.5C 938.517,415.448 938.351,416.448 938.5,417.5C 937.022,417.762 935.689,417.429 934.5,416.5C 933.518,413.904 932.851,411.238 932.5,408.5 Z"/></g>
</svg>
